# xmcd
#
# Track frame offsets:
#	150
#	22324
#	42461
#	62978
#	93033
#	110932
#	129377
#	154306
#	170726
#	204765
#	231760
#	251792
#	287271
#	299988
#
# Disc length: 4166
#
# Revision: 4
# Processed by: cddbd v1.5.1PL0 Copyright (c) Steve Scherf et al.
# Submitted via: CDValet v3.01 - Copyright (c) 1997 Greg Leichner
# Normalized: r3:TDELIM( - )
#
DISCID=d910440e
DTITLE=Various Artist - September songs
DYEAR=1900
DGENRE=
TTITLE0=Mack the knife - Nick Cave
TTITLE1=Ballad of the soldier's wife - P.J.Harvey
TTITLE2=Alabama song - David Johansen
TTITLE3=Youkali Tango - Teresa Stratas
TTITLE4=Lost in the stars - Elvis Costello
TTITLE5=Pirate Jenny - Lotte Lenya
TTITLE6=Speak low - Charlie Meden
TTITLE7=Oh heavenly salvation - The Persuations
TTITLE8=Lonely house - Betty Carter
TTITLE9=Surabaya-Johnny - Teresa Stratas
TTITLE10=Furchte dich nicht - Mary MArgaret O'Hara
TTITLE11=September song - Lou Reed
TTITLE12=Mack the knife - Bertolt Brecht
TTITLE13=What keeps mankind alive ? - W.S.Borroughs
EXTD=
EXTT0=
EXTT1=
EXTT2=
EXTT3=
EXTT4=
EXTT5=
EXTT6=
EXTT7=
EXTT8=
EXTT9=
EXTT10=
EXTT11=
EXTT12=
EXTT13=
PLAYORDER=
